<?xml version="1.0" standalone="no"?>
<!DOCTYPE svg PUBLIC "-//W3C//DTD SVG 1.1//EN" "http://www.w3.org/Graphics/SVG/1.1/DTD/svg11.dtd" >
<svg xmlns="http://www.w3.org/2000/svg" xmlns:xlink="http://www.w3.org/1999/xlink" version="1.1">
<metadata>
Created by FontForge 20150102 at Fri Jan 16 16:40:48 2015
 By uniteet7
Copyright 2001 Double Alex Font Studio.
</metadata>
<defs>
<font id="PlumbMediumC" horiz-adv-x="533" >
  <font-face 
    font-family="PlumbMediumC"
    font-weight="500"
    font-stretch="normal"
    units-per-em="1000"
    panose-1="0 0 6 0 0 0 0 0 0 0"
    ascent="789"
    descent="-211"
    x-height="507"
    cap-height="712"
    bbox="-35 -211 1137 927"
    underline-thickness="50"
    underline-position="-50"
    unicode-range="U+0020-2265"
  />
<missing-glyph horiz-adv-x="1000" 
 />
    <glyph glyph-name=".notdef" horiz-adv-x="1000" 
 />
    <glyph glyph-name=".null" horiz-adv-x="0" 
 />
    <glyph glyph-name="nonmarkingreturn" horiz-adv-x="333" 
 />
    <glyph glyph-name="space" unicode=" " horiz-adv-x="240" 
 />
    <glyph glyph-name="space" unicode="&#xa0;" horiz-adv-x="240" 
 />
    <glyph glyph-name="exclam" unicode="!" horiz-adv-x="332" 
d="M245 712l-23 -500h-78l-22 500h123zM248 62q0 -27 -19 -46t-46 -19q-26 0 -45.5 19t-19.5 45q0 27 19.5 46t45.5 19t45.5 -19t19.5 -45z" />
    <glyph glyph-name="quotedbl" unicode="&#x22;" horiz-adv-x="444" 
d="M366 521h-101v191h101v-191zM179 521h-101v191h101v-191z" />
    <glyph glyph-name="numbersign" unicode="#" horiz-adv-x="673" 
d="M623 426h-92l-20 -124h79v-94h-94l-33 -208h-106l33 208h-137l-33 -208h-106l33 208h-79v94h95l19 124h-81v94h95l31 196h107l-31 -196h136l31 196h106l-31 -196h78v-94zM424 426h-136l-20 -124h137z" />
    <glyph glyph-name="dollar" unicode="$" horiz-adv-x="608" 
d="M556 204q0 -121 -110 -178q-34 -18 -107 -29v-111h-81v108q-77 5 -125.5 24.5t-102.5 69.5l72 72q37 -34 68 -48q38 -17 97 -21v222l-26 3q-88 10 -137.5 61t-49.5 131q0 83 50 138q31 33 66 47.5t88 22.5v90h81v-89q67 -6 104.5 -21.5t87.5 -58.5l-69 -68q-29 24 -55 36
q-29 13 -76 18v-216l34 -5q85 -13 132 -52q59 -51 59 -146zM267 414v208q-108 -14 -108 -108q0 -43 26 -67t82 -33zM449 201q0 53 -30.5 75t-87.5 30v-214q57 9 87.5 33t30.5 76z" />
    <glyph glyph-name="percent" unicode="%" horiz-adv-x="841" 
d="M783 130q0 -61 -39 -98.5t-101 -37.5q-63 0 -101.5 37.5t-38.5 98.5v101q0 61 38.5 98.5t101.5 37.5q62 0 101 -37.5t39 -98.5v-101zM629 712l-335 -712h-82l336 712h81zM339 481q0 -61 -39 -98.5t-102 -37.5t-101.5 37.5t-38.5 98.5v101q0 61 39 98.5t101 37.5
q63 0 102 -37.5t39 -98.5v-101zM707 133v95q0 72 -64 72t-64 -72v-95q0 -72 64 -72t64 72zM263 484v95q0 72 -65 72q-64 0 -64 -72v-95q0 -72 65 -72q64 0 64 72z" />
    <glyph glyph-name="ampersand" unicode="&#x26;" horiz-adv-x="730" 
d="M684 0h-131l-58 70q-48 -41 -92.5 -58.5t-106.5 -17.5q-105 0 -166.5 56t-61.5 151q0 70 35 114t106 92q-25 29 -38 47.5t-24.5 47.5t-11.5 60q0 68 48.5 112t123.5 44q74 0 122.5 -44.5t48.5 -112.5q0 -52 -33.5 -88.5t-94.5 -75.5l150 -180q18 28 24 49q11 34 14 95h98
q-4 -86 -26 -143q-15 -38 -45 -77zM380 559q0 31 -20 50.5t-51 19.5t-50.5 -19t-19.5 -49q0 -18 10.5 -39t17.5 -29.5t27 -31.5q3 2 18 11.5t20 13.5t17 14t17 17.5t9.5 18.5t4.5 23zM434 142l-169 201q-26 -18 -37.5 -27.5t-28 -27.5t-23.5 -37.5t-7 -43.5
q0 -53 36.5 -86.5t94.5 -33.5q68 0 134 55z" />
    <glyph glyph-name="quotesingle" unicode="'" horiz-adv-x="257" 
d="M179 521h-101v191h101v-191z" />
    <glyph glyph-name="parenleft" unicode="(" horiz-adv-x="318" 
d="M258 -25l-68 -69q-44 43 -62 66q-24 31 -33 62.5t-9 82.5v478q0 71 23 116q15 29 81 95l68 -69q-21 -14 -47 -53q-23 -35 -23 -95v-466q0 -34 5.5 -55t22.5 -46q24 -35 42 -47z" />
    <glyph glyph-name="parenright" unicode=")" horiz-adv-x="318" 
d="M231 117q0 -75 -23 -116q-17 -30 -80 -95l-70 70q4 5 25.5 27.5t29.5 38.5q15 30 15 81v466q0 51 -15 81q-11 22 -55 66l70 70q46 -46 61 -66q24 -31 33 -62t9 -83v-478z" />
    <glyph glyph-name="asterisk" unicode="*" horiz-adv-x="484" 
d="M424 466l-37 -65l-111 69l4 -131h-76l5 131l-111 -69l-37 65l115 61l-115 62l37 65l111 -69l-5 130h76l-4 -130l111 69l37 -65l-115 -62z" />
    <glyph glyph-name="plus" unicode="+" 
d="M482 225h-167v-168h-96v168h-168v95h168v167h96v-167h167v-95z" />
    <glyph glyph-name="comma" unicode="," horiz-adv-x="272" 
d="M201 129l-93 -247h-86l61 247h118z" />
    <glyph glyph-name="hyphen" unicode="-" horiz-adv-x="426" 
d="M359 230h-292v95h292v-95z" />
    <glyph glyph-name="hyphen" unicode="&#xad;" horiz-adv-x="426" 
d="M359 230h-292v95h292v-95z" />
    <glyph glyph-name="period" unicode="." horiz-adv-x="284" 
d="M215 70q0 -30 -21.5 -51.5t-51.5 -21.5t-51.5 21.5t-21.5 50.5q0 30 21.5 51.5t51.5 21.5q29 0 51 -21.5t22 -50.5z" />
    <glyph glyph-name="slash" unicode="/" horiz-adv-x="380" 
d="M382 786l-285 -860h-97l285 860h97z" />
    <glyph glyph-name="zero" unicode="0" 
d="M472 198q0 -90 -57 -147t-148 -57t-149 57t-58 147v316q0 90 58 147t149 57q90 0 147.5 -57t57.5 -147v-316zM371 201v310q0 53 -28.5 84.5t-75.5 31.5q-48 0 -76.5 -31.5t-28.5 -84.5v-310q0 -53 28.5 -84.5t76.5 -31.5q47 0 75.5 31.5t28.5 84.5z" />
    <glyph glyph-name="one" unicode="1" 
d="M355 0h-102v601l-139 -121v111l139 121h102v-712z" />
    <glyph glyph-name="two" unicode="2" 
d="M477 0h-414v91l274 333q38 46 38 95q0 50 -28 79t-76 29q-100 0 -105 -110h-102q3 53 16 84q24 56 74.5 86.5t117.5 30.5q92 0 148.5 -55t56.5 -144q0 -42 -14 -74.5t-53 -79.5l-223 -274h290v-91z" />
    <glyph glyph-name="three" unicode="3" 
d="M478 201q0 -94 -59.5 -150.5t-159.5 -56.5q-101 0 -161 57q-49 47 -56 142h102q9 -108 116 -108q53 0 84.5 32t31.5 87q0 56 -31 86t-88 30h-17v89h17q52 0 80 28t28 79t-29 81t-77 30q-93 0 -107 -102h-102q5 52 18 80q24 54 75 83.5t117 29.5q92 0 149.5 -55.5
t57.5 -143.5q0 -55 -21 -90t-68 -61q52 -26 76 -66t24 -101z" />
    <glyph glyph-name="four" unicode="4" 
d="M497 107h-75v-107h-99v107h-288v95l251 510h110l-250 -510h177v166h99v-166h75v-95z" />
    <glyph glyph-name="five" unicode="5" 
d="M478 236q0 -69 -14 -112t-46 -75q-55 -55 -149 -55q-98 0 -152 54q-45 45 -54 136h102q9 -53 33 -76t70 -23q48 0 76 28q33 36 33 124q0 79 -25 114.5t-80 35.5q-76 0 -100 -63h-93v388h384v-91h-291v-189q43 43 117 43q81 0 128 -47q61 -61 61 -192z" />
    <glyph glyph-name="six" unicode="6" 
d="M476 210q0 -97 -58 -156.5t-152 -59.5t-152 58t-58 152q0 71 53 178l162 330h109l-153 -307q28 12 62 12q82 0 134.5 -58t52.5 -149zM375 206q0 57 -30 91.5t-79 34.5t-78.5 -33.5t-29.5 -89.5t29.5 -90t78.5 -34t79 33.5t30 87.5z" />
    <glyph glyph-name="seven" unicode="7" 
d="M487 621l-238 -621h-110l239 621h-217v-112h-98v203h424v-91z" />
    <glyph glyph-name="eight" unicode="8" 
d="M486 200q0 -91 -61.5 -148.5t-157.5 -57.5q-97 0 -158.5 57.5t-61.5 148.5q0 57 24.5 96t73.5 72q-86 60 -86 153q0 86 58.5 141.5t149.5 55.5q90 0 148.5 -55.5t58.5 -140.5q0 -96 -86 -154q49 -33 73.5 -72t24.5 -96zM372 516q0 49 -29.5 80t-75.5 31t-76 -31t-30 -78
t30 -77.5t76 -30.5q45 0 75 30t30 76zM384 201q0 52 -33.5 86.5t-83.5 34.5t-84 -34.5t-34 -84.5t34 -84t84 -34q49 0 83 34t34 82z" />
    <glyph glyph-name="nine" unicode="9" 
d="M477 507q0 -70 -53 -177l-162 -330h-109l154 307q-29 -12 -64 -12q-82 0 -134.5 58t-52.5 149q0 97 58 156.5t153 59.5q94 0 152 -58.5t58 -152.5zM375 501q0 58 -29.5 92t-79.5 34q-49 0 -78.5 -33.5t-29.5 -89.5t29.5 -90t78.5 -34t79 33.5t30 87.5z" />
    <glyph glyph-name="colon" unicode=":" horiz-adv-x="272" 
d="M209 411q0 -31 -21.5 -52t-51.5 -21t-51 21t-21 51t21 51.5t51 21.5q29 0 51 -21.5t22 -50.5zM209 71q0 -31 -21.5 -52.5t-51.5 -21.5t-51 21.5t-21 50.5q0 30 21 51.5t51 21.5q29 0 51 -21.5t22 -49.5z" />
    <glyph glyph-name="semicolon" unicode=";" horiz-adv-x="272" 
d="M209 411q0 -31 -21.5 -52t-51.5 -21t-51 21t-21 51t21 51.5t51 21.5q29 0 51 -21.5t22 -50.5zM201 129l-93 -247h-86l61 247h118z" />
    <glyph glyph-name="less" unicode="&#x3c;" 
d="M496 46l-460 183v100l460 183v-102l-347 -131l347 -130v-103z" />
    <glyph glyph-name="equal" unicode="=" 
d="M482 327h-431v95h431v-95zM482 133h-431v95h431v-95z" />
    <glyph glyph-name="greater" unicode="&#x3e;" 
d="M496 229l-460 -183v103l348 130l-348 131v102l460 -183v-100z" />
    <glyph glyph-name="question" unicode="?" horiz-adv-x="510" 
d="M470 528q0 -56 -48 -124l-77 -108q-18 -25 -18 -54v-30h-102v35q0 51 34 99l78 106q31 42 31 77q0 42 -28 70t-70 28q-44 0 -69.5 -26.5t-27.5 -74.5h-102q3 46 15 77q23 54 71.5 84.5t112.5 30.5q86 0 143 -54t57 -136zM340 62q0 -27 -19 -46t-46 -19t-45.5 19t-18.5 45
q0 27 18.5 46t45.5 19q26 0 45.5 -19t19.5 -45z" />
    <glyph glyph-name="at" unicode="@" horiz-adv-x="736" 
d="M671 -2l-95 2v50q-30 -32 -56.5 -44t-69.5 -12q-83 0 -132 55q-26 30 -36 71t-10 120q0 127 44 178q48 57 133 57q70 0 125 -56v61q0 71 -36.5 108t-106.5 37h-127q-68 0 -104 -36q-37 -38 -37 -109v-312q0 -42 9.5 -63.5t40.5 -46.5l-70 -70q-46 38 -61 70
q-18 39 -18 106v317q0 234 231 234h146q230 0 230 -234v-483zM574 233q0 82 -24.5 119t-77.5 37t-77 -37t-24 -118t24 -118t77 -37t77.5 37t24.5 117z" />
    <glyph glyph-name="A" unicode="A" horiz-adv-x="625" 
d="M616 0h-113l-50 143h-281l-50 -143h-114l261 712h87zM424 235l-109 316l-112 -316h221z" />
    <glyph glyph-name="B" unicode="B" horiz-adv-x="663" 
d="M596 200q0 -92 -57.5 -146t-157.5 -54h-288v712h277q97 0 156 -52.5t59 -139.5q0 -108 -96 -155q107 -50 107 -165zM477 513q0 48 -31 75t-85 27h-160v-204h160q54 0 85 27t31 75zM487 206q0 50 -31.5 79t-85.5 29h-169v-217h169q54 0 85.5 29.5t31.5 79.5z" />
    <glyph glyph-name="C" unicode="C" horiz-adv-x="574" 
d="M522 78q-51 -46 -92 -64q-48 -20 -105 -20q-115 0 -189 76q-21 21 -34.5 48t-20.5 48.5t-10 61t-3.5 59t-0.5 69.5q-1 4 -1 15t1 14q0 105 13.5 159.5t55.5 97.5q76 76 188 76q58 0 106 -20q41 -18 92 -64l-72 -73q-33 33 -60.5 46.5t-65.5 13.5q-65 0 -106 -43
q-19 -21 -29 -57t-11.5 -66.5t-1.5 -88.5v-32q0 -92 8.5 -132.5t33.5 -67.5q40 -43 106 -43q38 0 65.5 13.5t60.5 46.5z" />
    <glyph glyph-name="D" unicode="D" horiz-adv-x="666" 
d="M599 362q0 -112 -9 -172q-12 -73 -62 -123q-67 -67 -185 -67h-250v712h250q96 0 162.5 -47.5t83.5 -137.5q10 -52 10 -104v-61zM490 341v43q0 81 -8.5 119.5t-29.5 63.5q-40 48 -122 48h-129v-518h129q82 0 122 48q21 25 29.5 67.5t8.5 128.5z" />
    <glyph glyph-name="E" unicode="E" horiz-adv-x="603" 
d="M549 0h-456v712h456v-97h-348v-208h296v-96h-296v-214h348v-97z" />
    <glyph glyph-name="F" unicode="F" horiz-adv-x="585" 
d="M549 615h-348v-217h296v-97h-296v-301h-108v712h456v-97z" />
    <glyph glyph-name="G" unicode="G" horiz-adv-x="641" 
d="M580 277q0 -72 -14.5 -118t-48.5 -83q-77 -82 -194 -82q-113 0 -187 76q-51 52 -60 119q-9 55 -9 167v29q0 104 13.5 159.5t55.5 97.5q75 76 190 76q64 0 114 -22q42 -19 99 -72l-74 -73q-44 44 -77 58q-29 12 -63 12q-53 0 -91.5 -28.5t-48.5 -79.5q-9 -44 -9 -157v-23
q0 -92 8 -132.5t33 -66.5q41 -43 106 -43q72 0 115 51q34 43 34 112v39h-149v92h257v-108z" />
    <glyph glyph-name="H" unicode="H" horiz-adv-x="690" 
d="M598 0h-109v311h-288v-311h-108v712h108v-305h288v305h109v-712z" />
    <glyph glyph-name="I" unicode="I" horiz-adv-x="294" 
d="M201 0h-108v712h108v-712z" />
    <glyph glyph-name="J" unicode="J" horiz-adv-x="506" 
d="M423 225q0 -104 -65.5 -167.5t-173.5 -63.5q-55 0 -97 18q-36 14 -74 51l72 71q24 -24 46 -33.5t54 -9.5q62 0 96 37t34 105v479h108v-487z" />
    <glyph glyph-name="K" unicode="K" horiz-adv-x="658" 
d="M648 0h-127l-200 351l-120 -144v-207h-108v712h108v-358l290 358h133l-231 -279z" />
    <glyph glyph-name="L" unicode="L" horiz-adv-x="574" 
d="M544 0h-451v712h108v-615h343v-97z" />
    <glyph glyph-name="M" unicode="M" horiz-adv-x="813" 
d="M721 0h-109v476l-164 -347h-80l-167 347v-476h-108v712h107l208 -443l205 443h108v-712z" />
    <glyph glyph-name="N" unicode="N" horiz-adv-x="721" 
d="M628 0h-98l-329 502v-502h-108v712h98l329 -501v501h108v-712z" />
    <glyph glyph-name="O" unicode="O" horiz-adv-x="647" 
d="M580 356q0 -80 -2 -117t-18 -86t-49 -83q-74 -76 -188 -76q-113 0 -187 76q-33 33 -49 84t-18 87t-2 110v38q0 97 13.5 154t55.5 99q76 76 187 76q112 0 188 -76q69 -70 69 -236v-50zM471 363q0 94 -7 139.5t-35 74.5q-42 44 -106 44t-106 -44q-20 -21 -29.5 -57.5
t-10.5 -65t-1 -93.5v-29.5v-30.5t0.5 -28t1.5 -29t3 -25t5 -25.5t7 -21.5t10 -20.5t14 -16.5q44 -44 106 -44q65 0 106 44q20 21 29.5 55t11 66.5t1.5 106.5z" />
    <glyph glyph-name="P" unicode="P" horiz-adv-x="629" 
d="M591 496q0 -96 -63.5 -156t-164.5 -60h-162v-280h-108v712h270q101 0 164.5 -60t63.5 -156zM483 496q0 55 -34 87t-93 32h-155v-238h155q58 0 92.5 32t34.5 87z" />
    <glyph glyph-name="Q" unicode="Q" horiz-adv-x="646" 
d="M602 27l-59 -59l-71 70q-69 -44 -149 -44q-113 0 -187 76q-52 52 -60 113q-9 75 -9 159v59q0 100 14.5 150.5t54.5 90.5q76 76 187 76q114 0 188 -76q52 -53 60 -114q9 -56 9 -172v-30q0 -121 -17 -172q-7 -23 -30 -57zM471 335v41q0 96 -8.5 135t-33.5 66
q-41 44 -106 44t-106 -44q-21 -22 -30.5 -56.5t-10 -53.5t-0.5 -71v-63q0 -92 8 -131.5t33 -66.5q41 -44 106 -44q39 0 73 23l-75 75l60 60l69 -70q3 7 6 15t5 15t3.5 16t2.5 14.5t2 16t1.5 15t0.5 16.5v15.5v16.5v16z" />
    <glyph glyph-name="R" unicode="R" horiz-adv-x="655" 
d="M612 0h-126l-150 300h-135v-300h-108v712h276q98 0 159.5 -57.5t61.5 -150.5t-65 -149q-28 -24 -77 -40zM482 503q0 52 -32.5 82t-88.5 30h-160v-223h160q56 0 88.5 30t32.5 81z" />
    <glyph glyph-name="S" unicode="S" horiz-adv-x="590" 
d="M538 204q0 -98 -71 -154t-195 -56q-75 0 -131.5 22t-110.5 72l72 72q41 -38 82 -53.5t98 -15.5q72 0 110.5 28.5t38.5 81.5q0 51 -26.5 73.5t-79.5 29.5l-84 12q-187 27 -187 192q0 98 65 154t180 56q66 0 115.5 -19t98.5 -62l-69 -68q-65 55 -150 55q-64 0 -99.5 -29.5
t-35.5 -81.5q0 -82 107 -99l81 -12q93 -14 142 -60t49 -138z" />
    <glyph glyph-name="T" unicode="T" horiz-adv-x="560" 
d="M530 615h-196v-615h-108v615h-196v97h500v-97z" />
    <glyph glyph-name="U" unicode="U" horiz-adv-x="675" 
d="M593 240q0 -107 -72 -176.5t-184 -69.5q-111 0 -183 69.5t-72 176.5v472h109v-467q0 -70 39.5 -112t106.5 -42q68 0 108 42t40 112v467h108v-472z" />
    <glyph glyph-name="V" unicode="V" horiz-adv-x="564" 
d="M559 712l-235 -712h-84l-235 712h113l164 -518l163 518h114z" />
    <glyph glyph-name="W" unicode="W" horiz-adv-x="871" 
d="M860 712l-187 -712h-94l-144 499l-144 -499h-94l-186 712h114l124 -510l143 510h86l144 -510l124 510h114z" />
    <glyph glyph-name="X" unicode="X" horiz-adv-x="578" 
d="M568 0h-125l-155 273l-155 -273h-123l219 365l-205 347h124l140 -255l141 255h124l-206 -347z" />
    <glyph glyph-name="Y" unicode="Y" horiz-adv-x="544" 
d="M538 712l-212 -419v-293h-108v293l-213 419h118l150 -313l148 313h117z" />
    <glyph glyph-name="Z" unicode="Z" horiz-adv-x="552" 
d="M504 0h-456v93l330 522h-316v97h442v-88l-332 -527h332v-97z" />
    <glyph glyph-name="bracketleft" unicode="[" horiz-adv-x="346" 
d="M304 -74h-218v860h218v-91h-116v-678h116v-91z" />
    <glyph glyph-name="backslash" unicode="\" horiz-adv-x="380" 
d="M380 -74h-98l-282 852h97z" />
    <glyph glyph-name="bracketright" unicode="]" horiz-adv-x="346" 
d="M261 -74h-218v90h118v680h-118v90h218v-860z" />
    <glyph glyph-name="asciicircum" unicode="^" 
d="M485 401h-106l-112 207l-112 -207h-106l172 318h93z" />
    <glyph glyph-name="underscore" unicode="_" horiz-adv-x="600" 
d="M600 -172h-600v70h600v-70z" />
    <glyph glyph-name="grave" unicode="`" horiz-adv-x="500" 
d="M302 599h-77l-111 162h112z" />
    <glyph glyph-name="a" unicode="a" horiz-adv-x="530" 
d="M454 0h-100v46q-30 -30 -59 -40.5t-76 -10.5q-85 0 -130.5 39.5t-45.5 113.5q0 69 46.5 108t127.5 39h136v37q0 49 -27 71.5t-87 22.5q-42 0 -68 -13q-20 -9 -41 -36l-67 63q38 41 66 53q41 20 113 20q212 0 212 -174v-339zM353 183v40h-120q-91 0 -91 -72t100 -72
q59 0 85 24t26 80z" />
    <glyph glyph-name="b" unicode="b" horiz-adv-x="553" 
d="M495 252q0 -156 -56 -212q-46 -46 -126 -46q-45 0 -73 13t-59 47v-54h-100v712h102v-256q51 57 129 57q80 0 127 -45q25 -25 38 -66t15.5 -72t2.5 -78zM394 254q0 91 -24.5 129.5t-81.5 38.5q-62 0 -86 -49q-19 -39 -19 -123q0 -88 25 -126.5t81 -38.5t80.5 39t24.5 130z
" />
    <glyph glyph-name="c" unicode="c" horiz-adv-x="485" 
d="M448 66q-39 -39 -75 -55q-38 -17 -91 -17q-107 0 -167 69t-60 193q0 120 60.5 188.5t166.5 68.5q51 0 91 -17q36 -16 75 -55l-69 -67q-25 26 -46 37t-52 11q-124 0 -124 -168q0 -169 124 -169q32 0 51.5 11t46.5 38z" />
    <glyph glyph-name="d" unicode="d" horiz-adv-x="553" 
d="M472 0h-100v54q-30 -33 -58.5 -46.5t-73.5 -13.5q-82 0 -127 45q-56 56 -56 215v15q0 142 56 198q46 46 127 46q43 0 72 -12.5t58 -44.5v256h102v-712zM370 253q0 91 -24.5 130t-81.5 39q-62 0 -86 -49q-19 -39 -19 -123q0 -88 25 -126.5t81 -38.5t80.5 39t24.5 129z" />
    <glyph glyph-name="e" unicode="e" horiz-adv-x="539" 
d="M484 223h-328q3 -142 133 -142q64 0 119 53l64 -61q-44 -43 -85.5 -61t-101.5 -18q-114 0 -172 66.5t-58 195.5q0 119 57.5 188t157.5 69q98 0 156 -66t58 -178v-46zM384 295q-10 133 -114 133q-57 0 -84.5 -37.5t-29.5 -95.5h228z" />
    <glyph glyph-name="f" unicode="f" horiz-adv-x="328" 
d="M299 420h-100v-420h-102v420h-58v78h58v78q0 64 38 102.5t101 38.5h63v-87h-45q-55 0 -55 -59v-73h100v-78z" />
    <glyph glyph-name="g" unicode="g" horiz-adv-x="549" 
d="M468 2q0 -97 -60.5 -155t-162.5 -58q-55 0 -92.5 15t-80.5 52l65 64q50 -44 108 -44q57 0 89 34t32 95v65q-51 -58 -128 -58q-80 0 -125 45q-56 57 -56 206v16q0 132 56 188q46 46 126 46q42 0 71.5 -14t58.5 -45v53h99v-505zM366 262q0 85 -24 122.5t-80 37.5
q-55 0 -79 -37.5t-24 -121.5q0 -85 24.5 -122t79.5 -37q54 0 78.5 37t24.5 121z" />
    <glyph glyph-name="h" unicode="h" horiz-adv-x="566" 
d="M490 0h-102v311q0 53 -26.5 82t-75.5 29q-48 0 -75.5 -29.5t-27.5 -81.5v-311h-102v712h102v-256q57 57 133 57q80 0 127 -50.5t47 -135.5v-327z" />
    <glyph glyph-name="i" unicode="i" horiz-adv-x="264" 
d="M198 674q0 -29 -19 -48.5t-47 -19.5q-27 0 -46.5 19.5t-19.5 46.5q0 28 19.5 47t46.5 19t46.5 -19t19.5 -45zM183 0h-102v507h102v-507z" />
    <glyph glyph-name="j" unicode="j" horiz-adv-x="264" 
d="M198 674q0 -29 -19 -48.5t-47 -19.5q-27 0 -46.5 19.5t-19.5 46.5q0 28 19.5 47t46.5 19t46.5 -19t19.5 -45zM183 -67q0 -65 -37.5 -103t-101.5 -38h-63v88h45q29 0 42 14t13 45v568h102v-574z" />
    <glyph glyph-name="k" unicode="k" horiz-adv-x="548" 
d="M526 0h-126l-142 234l-75 -85v-149h-102v712h102v-439l197 234h124l-176 -199z" />
    <glyph glyph-name="l" unicode="l" horiz-adv-x="264" 
d="M183 0h-102v712h102v-712z" />
    <glyph glyph-name="m" unicode="m" horiz-adv-x="877" 
d="M802 0h-102v309q0 53 -27 83t-76 30q-48 0 -76.5 -29t-28.5 -78v-315h-101v309q0 53 -27.5 83t-75.5 30q-49 0 -77 -30t-28 -83v-309h-102v507h101v-51q60 57 135 57q90 0 143 -74q35 39 71.5 56.5t86.5 17.5q84 0 134 -51.5t50 -137.5v-324z" />
    <glyph glyph-name="n" unicode="n" horiz-adv-x="568" 
d="M492 0h-102v309q0 53 -27 83t-76 30t-76.5 -30t-27.5 -83v-309h-102v507h101v-51q57 57 134 57q82 0 129 -50.5t47 -138.5v-324z" />
    <glyph glyph-name="o" unicode="o" horiz-adv-x="537" 
d="M479 256q0 -77 -13.5 -122.5t-45.5 -79.5q-58 -60 -152 -60q-93 0 -151 60q-32 34 -46 79.5t-14 120.5q0 74 14 119.5t46 79.5q58 60 151 60q94 0 152 -60q32 -33 45.5 -78.5t13.5 -118.5zM378 252q0 101 -32 137q-30 33 -78 33q-49 0 -78 -34q-31 -38 -31 -138
q0 -96 33 -133q27 -32 76 -32q50 0 79 34q31 37 31 133z" />
    <glyph glyph-name="p" unicode="p" horiz-adv-x="553" 
d="M495 252q0 -156 -56 -212q-46 -46 -126 -46q-43 0 -72 13t-58 45v-257h-102v712h100v-53q32 33 59.5 46t71.5 13q142 0 172 -131q11 -49 11 -130zM394 254q0 91 -24.5 129.5t-81.5 38.5q-62 0 -86 -49q-19 -39 -19 -123q0 -88 25 -126.5t81 -38.5t80.5 39t24.5 130z" />
    <glyph glyph-name="q" unicode="q" horiz-adv-x="553" 
d="M472 -205h-102v257q-51 -58 -130 -58q-82 0 -127 45q-56 56 -56 215v16q0 141 56 197q46 46 127 46q44 0 73 -13t59 -46v53h100v-712zM370 253q0 91 -24.5 130t-81.5 39q-62 0 -86 -49q-19 -39 -19 -123q0 -88 25 -126.5t81 -38.5t80.5 39t24.5 129z" />
    <glyph glyph-name="r" unicode="r" horiz-adv-x="438" 
d="M437 465l-77 -77q-34 34 -74 34q-46 0 -74.5 -31.5t-28.5 -82.5v-308h-102v507h101v-55q52 61 137 61q38 0 63.5 -11t54.5 -37z" />
    <glyph glyph-name="s" unicode="s" horiz-adv-x="499" 
d="M455 155q0 -77 -58 -119t-164 -42q-71 0 -124 22q-35 14 -77 51l67 67q61 -53 145 -53q54 0 83 18.5t29 52.5q0 53 -68 59l-82 7q-149 12 -149 138q0 73 53.5 115t145.5 42q65 0 116 -20q31 -11 64 -37l-64 -65q-47 37 -122 37q-95 0 -95 -66q0 -51 70 -57l80 -7
q150 -14 150 -143z" />
    <glyph glyph-name="t" unicode="t" horiz-adv-x="342" 
d="M293 0h-61q-63 0 -101 38.5t-38 102.5v279h-58v78h58v154h102v-154h98v-78h-98v-274q0 -59 56 -59h42v-87z" />
    <glyph glyph-name="u" unicode="u" horiz-adv-x="568" 
d="M486 0h-99v51q-32 -31 -62.5 -44t-74.5 -13q-81 0 -127.5 50.5t-46.5 138.5v324h102v-309q0 -53 26.5 -83t75.5 -30t77 30t28 83v309h101v-507z" />
    <glyph glyph-name="v" unicode="v" horiz-adv-x="471" 
d="M463 507l-186 -507h-83l-187 507h109l119 -358l120 358h108z" />
    <glyph glyph-name="w" unicode="w" horiz-adv-x="742" 
d="M735 507l-157 -507h-88l-119 354l-118 -354h-88l-158 507h109l98 -358l118 358h78l119 -358l97 358h109z" />
    <glyph glyph-name="x" unicode="x" horiz-adv-x="503" 
d="M481 0h-122l-107 173l-107 -173h-123l174 259l-167 248h123l100 -165l100 165h122l-167 -248z" />
    <glyph glyph-name="y" unicode="y" horiz-adv-x="471" 
d="M464 507l-224 -608q-36 -100 -141 -100h-41v92h26q32 0 47 10.5t26 42.5l28 80l-178 483h109l121 -358l118 358h109z" />
    <glyph glyph-name="z" unicode="z" horiz-adv-x="469" 
d="M421 0h-378v81l252 335h-238v91h364v-81l-254 -335h254v-91z" />
    <glyph glyph-name="braceleft" unicode="{" horiz-adv-x="407" 
d="M361 -74h-70q-73 0 -108 34t-35 105v167q0 79 -66 79h-37v90h37q66 0 66 79v167q0 139 143 139h70v-91h-38q-46 0 -59.5 -14.5t-13.5 -63.5v-161q0 -39 -15 -61t-51 -39q36 -17 51 -39t15 -61v-161q0 -49 13.5 -63.5t59.5 -14.5h38v-91z" />
    <glyph glyph-name="bar" unicode="|" horiz-adv-x="338" 
d="M220 -74h-102v860h102v-860z" />
    <glyph glyph-name="braceright" unicode="}" horiz-adv-x="407" 
d="M361 311h-36q-66 0 -66 -79v-167q0 -139 -143 -139h-71v91h39q46 0 59.5 15t13.5 63v161q0 39 15 61t51 39q-36 17 -51 39t-15 61v161q0 48 -13.5 63t-59.5 15h-39v91h71q73 0 108 -34t35 -105v-167q0 -79 66 -79h36v-90z" />
    <glyph glyph-name="asciitilde" unicode="~" 
d="M511 280q-31 -30 -48 -43t-40 -24q-25 -11 -58 -11q-41 0 -101 27l-20 9q-46 21 -74 21q-23 0 -39.5 -8.5t-44.5 -35.5l-63 64q44 44 75 60q33 18 70 18q47 0 113 -33l16 -8q35 -16 65 -16q23 0 40 9t44 35z" />
    <glyph glyph-name="sterling" unicode="&#xa3;" 
d="M496 0h-411v313h-62v78h62v96q0 104 66 167.5t174 63.5q98 0 171 -69l-73 -71q-25 25 -46.5 34t-53.5 9q-62 0 -95.5 -37t-33.5 -105v-88h129v-78h-129v-216h302v-97z" />
    <glyph glyph-name="currency" unicode="&#xa4;" 
d="M502 63q-72 -69 -171 -69q-108 0 -174 63t-66 168v56h-61v60h61v46h-61v60h61v40q0 104 66 167.5t174 63.5q96 0 163 -61l-65 -78q-48 41 -89 41q-140 0 -140 -141v-32h183l-17 -60h-166v-46h153l-17 -60h-136v-48q0 -67 32.5 -104.5t96.5 -37.5q32 0 53 9.5t47 33.5z
" />
    <glyph glyph-name="brokenbar" unicode="&#xa6;" horiz-adv-x="344" 
d="M220 436h-102v350h102v-350zM220 -74h-102v350h102v-350z" />
    <glyph glyph-name="section" unicode="&#xa7;" horiz-adv-x="544" 
d="M472 268q0 -99 -97 -160q89 -46 89 -141q0 -79 -54 -128.5t-140 -49.5q-91 0 -143 52q-44 44 -49 118h100q9 -79 94 -79q42 0 67 22.5t25 59.5q0 67 -79 90l-70 21q-141 42 -141 181q0 102 97 161q-84 45 -84 132q0 77 51.5 124t135.5 47q90 0 140 -50q41 -41 46 -115
h-97q-5 41 -26.5 59t-64.5 18q-41 0 -64 -20.5t-23 -57.5q0 -59 75 -81l70 -21q142 -43 142 -182zM372 260q0 50 -26.5 79.5t-72.5 29.5q-45 0 -72.5 -29t-27.5 -78t27 -78.5t73 -29.5q44 0 71.5 29t27.5 77z" />
    <glyph glyph-name="copyright" unicode="&#xa9;" horiz-adv-x="862" 
d="M793 363q0 -155 -105 -262t-257 -107q-150 0 -256 106t-106 256t106 256t256 106q147 0 254.5 -105.5t107.5 -249.5zM720 350q0 128 -83 214t-206 86q-122 0 -205.5 -85t-83.5 -209t83.5 -209t205.5 -85q119 0 204 85t85 203zM568 209q-35 -31 -63 -41q-27 -11 -67 -11
q-83 0 -131.5 53.5t-48.5 145.5q0 91 48.5 145.5t130.5 54.5q35 0 65 -11q28 -10 66 -42l-46 -46q-42 36 -85 36q-53 0 -80.5 -36t-27.5 -104q0 -64 28.5 -98.5t80.5 -34.5q43 0 84 35z" />
    <glyph glyph-name="guillemotleft" unicode="&#xab;" horiz-adv-x="592" 
d="M520 42l-230 230l230 229v-123l-108 -106l108 -107v-123zM267 42l-230 230l230 229v-123l-107 -106l107 -107v-123z" />
    <glyph glyph-name="logicalnot" unicode="&#xac;" 
d="M484 98h-94v141h-342v95h436v-236z" />
    <glyph glyph-name="registered" unicode="&#xae;" horiz-adv-x="428" 
d="M402 533q0 -80 -54.5 -135.5t-133.5 -55.5q-78 0 -133 55t-55 133t55 133t133 55q76 0 132 -55t56 -130zM365 527q0 67 -43.5 112t-107.5 45q-63 0 -107 -45t-44 -109t44 -108.5t107 -44.5q62 0 106.5 44t44.5 106zM296 429h-42l-41 81h-27v-81h-37v203h76q28 0 47 -18
t19 -45q0 -18 -11 -33t-29 -21zM254 570q0 13 -9.5 21.5t-23.5 8.5h-35v-61h35q14 0 23.5 9t9.5 22z" />
    <glyph glyph-name="degree" unicode="&#xb0;" horiz-adv-x="471" 
d="M410 552q0 -74 -50.5 -125.5t-123.5 -51.5t-124 51t-51 123q0 73 51 124t124 51q71 0 122.5 -51t51.5 -121zM326 547q0 41 -26 68t-65 27t-65 -26.5t-26 -66.5q0 -39 26.5 -65.5t65.5 -26.5q37 0 63.5 26.5t26.5 63.5z" />
    <glyph glyph-name="plusminus" unicode="&#xb1;" 
d="M482 316h-167v-169h-96v169h-168v94h168v168h96v-168h167v-94zM482 0h-431v95h431v-95z" />
    <glyph glyph-name="mu" unicode="&#xb5;" horiz-adv-x="569" 
d="M487 0h-100v51q-57 -57 -133 -57q-44 0 -76 25v-224h-102v712h102v-309q0 -53 27 -83t76 -30t77 30t28 83v309h101v-507z" />
    <glyph glyph-name="mu" unicode="&#x3bc;" horiz-adv-x="569" 
d="M487 0h-100v51q-57 -57 -133 -57q-44 0 -76 25v-224h-102v712h102v-309q0 -53 27 -83t76 -30t77 30t28 83v309h101v-507z" />
    <glyph glyph-name="paragraph" unicode="&#xb6;" horiz-adv-x="636" 
d="M544 -205h-102v820h-108v-820h-102v522q-85 5 -139.5 58.5t-54.5 139.5q0 89 61.5 143t163.5 54h281v-917z" />
    <glyph glyph-name="periodcentered" unicode="&#xb7;" horiz-adv-x="284" 
d="M215 277q0 -31 -21.5 -52.5t-51.5 -21.5t-51.5 21.5t-21.5 51.5q0 29 21.5 50.5t51.5 21.5q29 0 51 -21.5t22 -49.5z" />
    <glyph glyph-name="periodcentered" unicode="&#x2219;" horiz-adv-x="284" 
d="M215 277q0 -31 -21.5 -52.5t-51.5 -21.5t-51.5 21.5t-21.5 51.5q0 29 21.5 50.5t51.5 21.5q29 0 51 -21.5t22 -49.5z" />
    <glyph glyph-name="guillemotright" unicode="&#xbb;" horiz-adv-x="592" 
d="M556 272l-231 -230v123l107 107l-107 106v123zM302 272l-230 -230v123l108 107l-108 106v123z" />
    <glyph glyph-name="divide" unicode="&#xf7;" 
d="M339 472q0 -31 -21 -52t-51 -21t-51.5 21t-21.5 51t21.5 51.5t51.5 21.5q29 0 50.5 -21.5t21.5 -50.5zM484 230h-436v95h436v-95zM339 86q0 -31 -21.5 -53t-50.5 -22q-30 0 -51.5 22t-21.5 51q0 30 21.5 51.5t51.5 21.5q29 0 50.5 -21.5t21.5 -49.5z" />
    <glyph glyph-name="florin" unicode="&#x192;" horiz-adv-x="415" 
d="M385 630h-59q-56 0 -67 -59l-31 -180h100v-78h-114l-91 -518h-102l92 518h-82v78h95l33 185q11 65 55 103t108 38h63v-87z" />
    <glyph glyph-name="Delta" unicode="&#x394;" horiz-adv-x="619" 
d="M613 0h-608l261 712h87zM472 92l-161 459l-163 -459h324z" />
    <glyph glyph-name="Delta" unicode="&#x2206;" horiz-adv-x="619" 
d="M613 0h-608l261 712h87zM472 92l-161 459l-163 -459h324z" />
    <glyph glyph-name="afii10023" unicode="&#x401;" horiz-adv-x="603" 
d="M477 839q0 -24 -16.5 -40.5t-39.5 -16.5t-39.5 16.5t-16.5 39.5t16.5 40t39.5 17t39.5 -16.5t16.5 -39.5zM258 839q0 -24 -16.5 -40.5t-39.5 -16.5t-39.5 16.5t-16.5 39.5t16.5 40t39.5 17q22 0 39 -16.5t17 -39.5zM549 0h-456v712h456v-97h-348v-208h296v-96h-296v-214
h348v-97z" />
    <glyph glyph-name="afii10051" unicode="&#x402;" horiz-adv-x="746" 
d="M669 24q0 -107 -59 -168.5t-172 -61.5q-46 0 -84 13q-33 12 -64 37l66 78q34 -31 84 -31q56 0 88 36.5t32 103.5v191q0 54 -30.5 79t-73.5 25h-155v-326h-108v615h-165v97h499v-97h-226v-193h173q84 0 139.5 -48.5t55.5 -134.5v-215z" />
    <glyph glyph-name="afii10052" unicode="&#x403;" horiz-adv-x="565" 
d="M439 927l-111 -162h-76l75 162h112zM536 615h-330v-615h-108v712h438v-97z" />
    <glyph glyph-name="afii10053" unicode="&#x404;" horiz-adv-x="574" 
d="M522 78q-54 -49 -99 -67q-41 -17 -98 -17q-115 0 -189 76q-21 21 -34.5 48.5t-20.5 49t-10 63t-3.5 62.5t-0.5 76v28q0 101 14.5 153t54.5 92q76 76 188 76q56 0 99 -17q46 -19 99 -67l-72 -73q-60 60 -125 60q-66 0 -105 -41q-19 -20 -29 -53.5t-12 -55t-3 -65.5h233
v-95h-233q1 -72 10 -112t34 -67q39 -41 105 -41q65 0 125 60z" />
    <glyph glyph-name="afii10054" unicode="&#x405;" horiz-adv-x="590" 
d="M538 204q0 -98 -71 -154t-195 -56q-75 0 -131.5 22t-110.5 72l72 72q41 -38 82 -53.5t98 -15.5q72 0 110.5 28.5t38.5 81.5q0 51 -26.5 73.5t-79.5 29.5l-84 12q-187 27 -187 192q0 98 65 154t180 56q66 0 115.5 -19t98.5 -62l-69 -68q-65 55 -150 55q-64 0 -99.5 -29.5
t-35.5 -81.5q0 -82 107 -99l81 -12q93 -14 142 -60t49 -138z" />
    <glyph glyph-name="afii10055" unicode="&#x406;" horiz-adv-x="294" 
d="M201 0h-108v712h108v-712z" />
    <glyph glyph-name="afii10056" unicode="&#x407;" horiz-adv-x="294" 
d="M313 839q0 -24 -17 -40.5t-40 -16.5t-39.5 16.5t-16.5 39.5t16.5 40t39.5 17t40 -17t17 -39zM93 839q0 -24 -16.5 -40.5t-39.5 -16.5t-39.5 16.5t-16.5 39.5t16.5 40t39.5 17t39.5 -16.5t16.5 -39.5zM201 0h-108v712h108v-712z" />
    <glyph glyph-name="afii10057" unicode="&#x408;" horiz-adv-x="506" 
d="M423 225q0 -104 -65.5 -167.5t-173.5 -63.5q-55 0 -97 18q-36 14 -74 51l72 71q24 -24 46 -33.5t54 -9.5q62 0 96 37t34 105v479h108v-487z" />
    <glyph glyph-name="afii10058" unicode="&#x409;" horiz-adv-x="1025" 
d="M988 216q0 -96 -62 -156t-163 -60h-274v615h-198l-10 -308q-5 -161 -57 -234t-155 -73h-54v97h25q63 0 96 47t37 177l11 391h413v-280h166q102 0 163.5 -60t61.5 -156zM880 216q0 55 -34 87t-93 32h-156v-238h156q59 0 93 31.5t34 87.5z" />
    <glyph glyph-name="afii10059" unicode="&#x40a;" horiz-adv-x="1025" 
d="M988 216q0 -96 -62 -156t-163 -60h-274v335h-288v-335h-108v712h108v-280h288v280h108v-280h166q102 0 163.5 -60t61.5 -156zM880 216q0 55 -34 87t-93 32h-156v-238h156q59 0 93 31.5t34 87.5z" />
    <glyph glyph-name="afii10060" unicode="&#x40b;" horiz-adv-x="746" 
d="M669 0h-109v235q0 54 -30.5 79t-73.5 25q-65 0 -155 -19v-320h-108v615h-165v97h499v-97h-226v-199q109 21 178 21q79 0 134.5 -49t55.5 -135v-253z" />
    <glyph glyph-name="afii10061" unicode="&#x40c;" horiz-adv-x="658" 
d="M450 927l-112 -162h-76l75 162h113zM648 0h-127l-200 351l-120 -144v-207h-108v712h108v-358l290 358h133l-231 -279z" />
    <glyph glyph-name="afii10062" unicode="&#x40e;" horiz-adv-x="564" 
d="M453 893q-20 -140 -161 -140q-142 0 -161 140h73q15 -65 88 -65q74 0 87 65h74zM558 712l-255 -596q-50 -116 -150 -116h-74v97h51q59 0 83 57l25 58l-231 500h114l170 -381l153 381h114z" />
    <glyph glyph-name="afii10145" unicode="&#x40f;" horiz-adv-x="691" 
d="M597 0h-199v-170h-105v170h-200v712h108v-615h288v615h108v-712z" />
    <glyph glyph-name="afii10017" unicode="&#x410;" horiz-adv-x="625" 
d="M616 0h-113l-50 143h-281l-50 -143h-114l261 712h87zM424 235l-109 316l-112 -316h221z" />
    <glyph glyph-name="afii10018" unicode="&#x411;" horiz-adv-x="655" 
d="M595 216q0 -97 -61 -156.5t-164 -59.5h-277v712h458v-97h-350v-183h169q103 0 164 -59.5t61 -156.5zM487 216q0 55 -33 87t-91 32h-162v-238h162q58 0 91 31.5t33 87.5z" />
    <glyph glyph-name="afii10019" unicode="&#x412;" horiz-adv-x="663" 
d="M596 200q0 -92 -57.5 -146t-157.5 -54h-288v712h277q97 0 156 -52.5t59 -139.5q0 -108 -96 -155q107 -50 107 -165zM477 513q0 48 -31 75t-85 27h-160v-204h160q54 0 85 27t31 75zM487 206q0 50 -31.5 79t-85.5 29h-169v-217h169q54 0 85.5 29.5t31.5 79.5z" />
    <glyph glyph-name="afii10020" unicode="&#x413;" horiz-adv-x="565" 
d="M536 615h-330v-615h-108v712h438v-97z" />
    <glyph glyph-name="afii10021" unicode="&#x414;" horiz-adv-x="706" 
d="M672 -170h-106v170h-432v-170h-105v267h71q47 114 65.5 235.5t18.5 336.5v43h404v-615h84v-267zM480 97v518h-192v-35q0 -172 -17.5 -272t-59.5 -211h269z" />
    <glyph glyph-name="afii10022" unicode="&#x415;" horiz-adv-x="603" 
d="M549 0h-456v712h456v-97h-348v-208h296v-96h-296v-214h348v-97z" />
    <glyph glyph-name="afii10024" unicode="&#x416;" horiz-adv-x="943" 
d="M933 0h-127l-185 339l-96 -126v-213h-108v213l-96 126l-184 -339h-127l240 425l-215 287h130l252 -356v356h108v-356l252 356h130l-215 -287z" />
    <glyph glyph-name="afii10025" unicode="&#x417;" horiz-adv-x="589" 
d="M521 201q0 -93 -68.5 -150t-172.5 -57q-81 0 -139.5 20.5t-112.5 73.5l71 72q75 -69 179 -69q57 0 95.5 30.5t38.5 82.5q0 56 -33.5 85.5t-92.5 29.5h-85v90h87q54 0 84 28.5t30 80.5q0 49 -34.5 77t-88.5 28q-96 0 -159 -56l-67 69q93 82 230 82q98 0 162.5 -53
t64.5 -140q0 -110 -98 -157q109 -44 109 -167z" />
    <glyph glyph-name="afii10026" unicode="&#x418;" horiz-adv-x="711" 
d="M618 0h-108v517l-319 -517h-98v712h108v-516l318 516h99v-712z" />
    <glyph glyph-name="afii10027" unicode="&#x419;" horiz-adv-x="711" 
d="M517 893q-19 -140 -161 -140q-141 0 -161 140h73q15 -65 89 -65t87 65h73zM618 0h-108v517l-319 -517h-98v712h108v-516l318 516h99v-712z" />
    <glyph glyph-name="afii10028" unicode="&#x41a;" horiz-adv-x="658" 
d="M648 0h-127l-200 351l-120 -144v-207h-108v712h108v-358l290 358h133l-231 -279z" />
    <glyph glyph-name="afii10029" unicode="&#x41b;" horiz-adv-x="691" 
d="M597 0h-108v615h-198l-10 -308q-5 -161 -57 -234t-155 -73h-54v97h25q63 0 96 47t37 177l11 391h413v-712z" />
    <glyph glyph-name="afii10030" unicode="&#x41c;" horiz-adv-x="813" 
d="M721 0h-109v476l-164 -347h-80l-167 347v-476h-108v712h107l208 -443l205 443h108v-712z" />
    <glyph glyph-name="afii10031" unicode="&#x41d;" horiz-adv-x="690" 
d="M598 0h-109v311h-288v-311h-108v712h108v-305h288v305h109v-712z" />
    <glyph glyph-name="afii10032" unicode="&#x41e;" horiz-adv-x="647" 
d="M580 356q0 -80 -2 -117t-18 -86t-49 -83q-74 -76 -188 -76q-113 0 -187 76q-33 33 -49 84t-18 87t-2 110v38q0 97 13.5 154t55.5 99q76 76 187 76q112 0 188 -76q69 -70 69 -236v-50zM471 363q0 94 -7 139.5t-35 74.5q-42 44 -106 44t-106 -44q-20 -21 -29.5 -57.5
t-10.5 -65t-1 -93.5v-29.5v-30.5t0.5 -28t1.5 -29t3 -25t5 -25.5t7 -21.5t10 -20.5t14 -16.5q44 -44 106 -44q65 0 106 44q20 21 29.5 55t11 66.5t1.5 106.5z" />
    <glyph glyph-name="afii10033" unicode="&#x41f;" horiz-adv-x="690" 
d="M597 0h-108v615h-288v-615h-108v712h504v-712z" />
    <glyph glyph-name="afii10034" unicode="&#x420;" horiz-adv-x="629" 
d="M591 496q0 -96 -63.5 -156t-164.5 -60h-162v-280h-108v712h270q101 0 164.5 -60t63.5 -156zM483 496q0 55 -34 87t-93 32h-155v-238h155q58 0 92.5 32t34.5 87z" />
    <glyph glyph-name="afii10035" unicode="&#x421;" horiz-adv-x="574" 
d="M522 78q-51 -46 -92 -64q-48 -20 -105 -20q-115 0 -189 76q-25 25 -40.5 55t-21 74t-6.5 70t-1 87q-1 4 -1 15t1 14q0 105 13.5 159.5t55.5 97.5q76 76 188 76q58 0 106 -20q41 -18 92 -64l-72 -73q-33 33 -60.5 46.5t-65.5 13.5q-65 0 -106 -43q-19 -21 -29 -57
t-11.5 -66.5t-1.5 -88.5v-32q0 -92 8.5 -132.5t33.5 -67.5q40 -43 106 -43q38 0 65.5 13.5t60.5 46.5z" />
    <glyph glyph-name="afii10036" unicode="&#x422;" horiz-adv-x="560" 
d="M530 615h-196v-615h-108v615h-196v97h500v-97z" />
    <glyph glyph-name="afii10037" unicode="&#x423;" horiz-adv-x="564" 
d="M558 712l-255 -596q-50 -116 -150 -116h-74v97h51q59 0 83 57l25 58l-231 500h114l170 -381l153 381h114z" />
    <glyph glyph-name="afii10038" unicode="&#x424;" horiz-adv-x="770" 
d="M720 371q0 -134 -74 -213.5t-207 -82.5v-80h-108v80q-133 3 -207 82.5t-74 213.5q0 132 76 208t205 80v58h108v-58q129 -4 205 -80t76 -208zM612 367q0 91 -43 142t-130 53v-391q84 3 128.5 55t44.5 141zM331 171v391q-87 -2 -130 -53t-43 -142q0 -89 44 -141t129 -55z
" />
    <glyph glyph-name="afii10039" unicode="&#x425;" horiz-adv-x="578" 
d="M568 0h-125l-155 273l-155 -273h-123l219 365l-205 347h124l140 -255l141 255h124l-206 -347z" />
    <glyph glyph-name="afii10040" unicode="&#x426;" horiz-adv-x="715" 
d="M681 -170h-105v170h-483v712h108v-615h288v615h108v-615h84v-267z" />
    <glyph glyph-name="afii10041" unicode="&#x427;" horiz-adv-x="647" 
d="M554 0h-108v293q-27 -13 -77.5 -26t-99.5 -13q-86 0 -142.5 52t-56.5 143v263h108v-246q0 -59 32.5 -87t82.5 -28q41 0 85.5 13t67.5 30v318h108v-712z" />
    <glyph glyph-name="afii10042" unicode="&#x428;" horiz-adv-x="992" 
d="M900 0h-807v712h108v-615h241v615h109v-615h240v615h109v-712z" />
    <glyph glyph-name="afii10043" unicode="&#x429;" horiz-adv-x="1016" 
d="M983 -170h-106v170h-784v712h108v-615h241v615h109v-615h240v615h109v-615h83v-267z" />
    <glyph glyph-name="afii10044" unicode="&#x42a;" horiz-adv-x="757" 
d="M720 216q0 -96 -62.5 -156t-162.5 -60h-274v615h-191v97h300v-280h165q101 0 163 -60t62 -156zM612 216q0 55 -34 87t-92 32h-156v-238h156q58 0 92 32t34 87z" />
    <glyph glyph-name="afii10045" unicode="&#x42b;" horiz-adv-x="879" 
d="M786 0h-108v712h108v-712zM592 216q0 -96 -62.5 -156t-163.5 -60h-273v712h108v-280h165q102 0 164 -60t62 -156zM483 216q0 55 -33.5 87t-92.5 32h-156v-238h156q59 0 92.5 31.5t33.5 87.5z" />
    <glyph glyph-name="afii10046" unicode="&#x42c;" horiz-adv-x="629" 
d="M592 216q0 -96 -62.5 -156t-163.5 -60h-273v712h108v-280h165q102 0 164 -60t62 -156zM483 216q0 55 -33.5 87t-92.5 32h-156v-238h156q59 0 92.5 31.5t33.5 87.5z" />
    <glyph glyph-name="afii10047" unicode="&#x42d;" horiz-adv-x="574" 
d="M507 324q0 -59 -3 -95t-19 -82t-47 -77q-76 -76 -189 -76q-57 0 -98 17q-46 19 -99 67l69 71q60 -58 128 -58q66 0 107 43q24 26 32.5 64.5t9.5 112.5h-232v95h231q-2 62 -8 97t-26 62q-43 56 -114 56q-39 0 -66.5 -14t-60.5 -45l-69 73q52 48 99 66q46 17 98 17
q114 0 183 -71q41 -41 57.5 -102t16.5 -158v-63z" />
    <glyph glyph-name="afii10048" unicode="&#x42e;" horiz-adv-x="909" 
d="M842 356q0 -122 -11.5 -180t-57.5 -106q-74 -76 -187 -76t-187 76q-41 42 -54.5 95t-15.5 146h-128v-311h-108v712h108v-304h129q3 91 16 142t53 92q73 76 187 76q113 0 187 -76q69 -70 69 -223v-63zM733 342v37q0 87 -8.5 129.5t-32.5 68.5q-41 44 -106 44
q-67 0 -106 -44q-26 -28 -34 -73.5t-8 -133.5v-40q0 -87 8.5 -127.5t33.5 -66.5q42 -45 106 -45t106 45q27 28 34 71.5t7 134.5z" />
    <glyph glyph-name="afii10049" unicode="&#x42f;" horiz-adv-x="653" 
d="M561 0h-109v280h-142l-137 -280h-129l155 300q-64 21 -100.5 73t-36.5 123q0 96 63.5 156t164.5 60h271v-712zM452 377v238h-155q-59 0 -93 -32t-34 -87t34.5 -87t92.5 -32h155z" />
    <glyph glyph-name="afii10065" unicode="&#x430;" horiz-adv-x="530" 
d="M454 0h-100v46q-30 -30 -59 -40.5t-76 -10.5q-85 0 -130.5 39.5t-45.5 113.5q0 69 46.5 108t127.5 39h136v37q0 49 -27 71.5t-87 22.5q-42 0 -68 -13q-20 -9 -41 -36l-67 63q38 41 66 53q41 20 113 20q212 0 212 -174v-339zM353 183v40h-120q-91 0 -91 -72t100 -72
q59 0 85 24t26 80z" />
    <glyph glyph-name="afii10066" unicode="&#x431;" horiz-adv-x="537" 
d="M479 251q0 -142 -61 -204q-53 -53 -145 -53q-129 0 -177 108q-29 66 -29 196v42q0 139 14 209t68 114q27 21 70.5 34.5t71.5 17t84 7t61 3.5v-92q-11 -1 -51.5 -3t-67.5 -4.5t-62 -13t-56 -27.5q-9 -8 -17 -18t-13 -19t-9 -22t-6 -21t-4 -22t-2.5 -19t-1 -18t-0.5 -14h3
q18 30 56.5 50.5t82.5 20.5q191 0 191 -252zM378 249q0 94 -29 131q-27 33 -77 33q-48 0 -76 -35q-27 -36 -27 -129q0 -95 28 -130q28 -34 76 -34q105 0 105 164z" />
    <glyph glyph-name="afii10067" unicode="&#x432;" horiz-adv-x="545" 
d="M485 143q0 -66 -41 -104.5t-112 -38.5h-251v507h243q70 0 111.5 -37t41.5 -99q0 -76 -71 -109q79 -36 79 -119zM377 364q0 30 -19.5 46.5t-55.5 16.5h-120v-128h120q75 0 75 65zM385 150q0 33 -20.5 51.5t-56.5 18.5h-126v-141h126q36 0 56.5 19.5t20.5 51.5z" />
    <glyph glyph-name="afii10068" unicode="&#x433;" horiz-adv-x="426" 
d="M414 418h-227v-418h-102v507h329v-89z" />
    <glyph glyph-name="afii10069" unicode="&#x434;" horiz-adv-x="574" 
d="M549 -140h-98v140h-335v-140h-97v229h58q31 76 45 148t14 199v71h343v-418h70v-229zM377 89v329h-144q0 -6 -0.5 -42.5t-0.5 -40.5q-3 -131 -50 -246h195z" />
    <glyph glyph-name="afii10070" unicode="&#x435;" horiz-adv-x="539" 
d="M484 223h-328q3 -142 133 -142q64 0 119 53l64 -61q-44 -43 -85.5 -61t-101.5 -18q-114 0 -172 66.5t-58 195.5q0 119 57.5 188t157.5 69q98 0 156 -66t58 -178v-46zM384 295q-10 133 -114 133q-57 0 -84.5 -37.5t-29.5 -95.5h228z" />
    <glyph glyph-name="afii10072" unicode="&#x436;" horiz-adv-x="742" 
d="M733 0h-120l-125 217l-66 -83v-134h-102v134l-66 83l-125 -217h-120l179 297l-162 210h121l173 -242v242h102v-242l174 242h119l-161 -210z" />
    <glyph glyph-name="afii10073" unicode="&#x437;" horiz-adv-x="489" 
d="M430 147q0 -68 -56.5 -110.5t-136.5 -42.5q-133 0 -213 73l61 65q55 -51 138 -51q42 0 74.5 19.5t32.5 52.5q0 68 -88 68h-76v77h75q37 0 59 18t22 50q0 31 -26.5 47.5t-72.5 16.5q-67 0 -122 -39l-57 65q74 57 196 57q77 0 129.5 -36.5t52.5 -100.5q0 -37 -20 -67
t-54 -44q37 -14 59.5 -45.5t22.5 -72.5z" />
    <glyph glyph-name="afii10074" unicode="&#x438;" horiz-adv-x="583" 
d="M502 0h-102v349l-217 -349h-102v507h102v-344l217 344h102v-507z" />
    <glyph glyph-name="afii10075" unicode="&#x439;" horiz-adv-x="583" 
d="M453 718q-20 -139 -162 -139q-141 0 -161 139h73q15 -65 89 -65t87 65h74zM502 0h-102v349l-217 -349h-102v507h102v-344l217 344h102v-507z" />
    <glyph glyph-name="afii10076" unicode="&#x43a;" horiz-adv-x="546" 
d="M527 0h-125l-145 225l-73 -83v-142h-102v507h102v-241l202 241h125l-185 -208z" />
    <glyph glyph-name="afii10077" unicode="&#x43b;" horiz-adv-x="570" 
d="M488 0h-102v418h-148l-6 -215q-6 -203 -160 -203h-55v89h21q89 0 93 136l8 282h349v-507z" />
    <glyph glyph-name="afii10078" unicode="&#x43c;" horiz-adv-x="667" 
d="M585 0h-102v325l-117 -232h-64l-119 232v-325h-102v507h101l152 -302l151 302h100v-507z" />
    <glyph glyph-name="afii10079" unicode="&#x43d;" horiz-adv-x="568" 
d="M487 0h-102v216h-202v-216h-102v507h102v-202h202v202h102v-507z" />
    <glyph glyph-name="afii10080" unicode="&#x43e;" horiz-adv-x="537" 
d="M479 256q0 -77 -13.5 -122.5t-45.5 -79.5q-58 -60 -152 -60q-93 0 -151 60q-32 34 -46 79.5t-14 120.5q0 74 14 119.5t46 79.5q58 60 151 60q94 0 152 -60q32 -33 45.5 -78.5t13.5 -118.5zM378 252q0 101 -32 137q-30 33 -78 33q-49 0 -78 -34q-31 -38 -31 -138
q0 -96 33 -133q27 -32 76 -32q50 0 79 34q31 37 31 133z" />
    <glyph glyph-name="afii10081" unicode="&#x43f;" horiz-adv-x="568" 
d="M487 0h-102v418h-202v-418h-102v507h406v-507z" />
    <glyph glyph-name="afii10082" unicode="&#x440;" horiz-adv-x="553" 
d="M495 252q0 -156 -56 -212q-46 -46 -126 -46q-43 0 -72 13t-58 45v-257h-102v712h100v-53q32 33 59.5 46t71.5 13q142 0 172 -131q11 -49 11 -130zM394 254q0 91 -24.5 129.5t-81.5 38.5q-62 0 -86 -49q-19 -39 -19 -123q0 -88 25 -126.5t81 -38.5t80.5 39t24.5 130z" />
    <glyph glyph-name="afii10083" unicode="&#x441;" horiz-adv-x="485" 
d="M448 66q-39 -39 -75 -55q-38 -17 -91 -17q-107 0 -167 69t-60 193q0 120 60.5 188.5t166.5 68.5q51 0 91 -17q36 -16 75 -55l-69 -67q-25 26 -46 37t-52 11q-124 0 -124 -168q0 -169 124 -169q32 0 51.5 11t46.5 38z" />
    <glyph glyph-name="afii10084" unicode="&#x442;" horiz-adv-x="440" 
d="M429 418h-155v-418h-102v418h-161v89h418v-89z" />
    <glyph glyph-name="afii10085" unicode="&#x443;" horiz-adv-x="471" 
d="M464 507l-224 -608q-36 -100 -141 -100h-41v92h26q32 0 47 10.5t26 42.5l28 80l-178 483h109l121 -358l118 358h109z" />
    <glyph glyph-name="afii10086" unicode="&#x444;" horiz-adv-x="709" 
d="M656 256q0 -126 -64 -192.5t-187 -68.5v-200h-102v200q-123 2 -187 68.5t-64 192.5q0 253 251 256v200h102v-200q251 -3 251 -256zM554 254q0 167 -150 168v-337q74 1 112 44.5t38 124.5zM304 85v337q-150 -1 -150 -168q0 -81 38 -124.5t112 -44.5z" />
    <glyph glyph-name="afii10087" unicode="&#x445;" horiz-adv-x="503" 
d="M481 0h-122l-107 173l-107 -173h-123l174 259l-167 248h123l100 -165l100 165h122l-167 -248z" />
    <glyph glyph-name="afii10088" unicode="&#x446;" horiz-adv-x="587" 
d="M559 -140h-98v140h-380v507h102v-418h202v418h102v-418h72v-229z" />
    <glyph glyph-name="afii10089" unicode="&#x447;" horiz-adv-x="537" 
d="M456 0h-102v203q-64 -27 -131 -27q-71 0 -114.5 40t-43.5 108v183h102v-161q0 -42 23 -61t59 -18q64 0 105 29v211h102v-507z" />
    <glyph glyph-name="afii10090" unicode="&#x448;" horiz-adv-x="812" 
d="M730 0h-649v507h102v-418h172v418h102v-418h171v418h102v-507z" />
    <glyph glyph-name="afii10091" unicode="&#x449;" horiz-adv-x="830" 
d="M802 -140h-97v140h-624v507h102v-418h172v418h102v-418h171v418h102v-418h72v-229z" />
    <glyph glyph-name="afii10092" unicode="&#x44a;" horiz-adv-x="609" 
d="M571 158q0 -71 -45.5 -114.5t-119.5 -43.5h-235v418h-159v89h261v-191h133q74 0 119.5 -43.5t45.5 -114.5zM470 158q0 35 -21 54.5t-59 19.5h-117v-149h117q38 0 59 20t21 55z" />
    <glyph glyph-name="afii10093" unicode="&#x44b;" horiz-adv-x="741" 
d="M653 0h-102v507h102v-507zM481 158q0 -70 -45.5 -114t-119.5 -44h-235v507h102v-191h133q74 0 119.5 -44t45.5 -114zM380 158q0 35 -21.5 54.5t-59.5 19.5h-116v-149h116q38 0 59.5 20t21.5 55z" />
    <glyph glyph-name="afii10094" unicode="&#x44c;" horiz-adv-x="518" 
d="M481 158q0 -71 -45.5 -114.5t-118.5 -43.5h-236v507h102v-191h134q73 0 118.5 -43.5t45.5 -114.5zM380 158q0 35 -21 54.5t-59 19.5h-117v-149h117q38 0 59 20t21 55z" />
    <glyph glyph-name="afii10095" unicode="&#x44d;" horiz-adv-x="485" 
d="M430 256q0 -125 -59.5 -193.5t-168.5 -68.5q-53 0 -89.5 16t-75.5 55l68 67q27 -27 48 -38t51 -11q59 0 90 38.5t34 101.5h-177v72h177q-6 60 -37.5 94.5t-87.5 34.5q-49 0 -98 -49l-68 66q40 39 76.5 55.5t88.5 16.5q108 0 168 -68t60 -189z" />
    <glyph glyph-name="afii10096" unicode="&#x44e;" horiz-adv-x="752" 
d="M694 256q0 -76 -13.5 -122t-45.5 -80q-58 -60 -152 -60q-83 0 -137 48q-68 58 -72 174h-91v-216h-102v507h102v-204h91q7 107 71 162q56 48 138 48q102 0 158 -67q53 -63 53 -190zM593 254q0 95 -31 133q-27 35 -79 35q-50 0 -79 -35q-30 -37 -30 -132t29 -134
q28 -36 80 -36q51 0 80 37q30 37 30 132z" />
    <glyph glyph-name="afii10097" unicode="&#x44f;" horiz-adv-x="536" 
d="M455 0h-102v186h-93l-96 -186h-120l114 205q-49 14 -78 52.5t-29 92.5q0 69 46 113t119 44h239v-507zM354 270v152h-121q-38 0 -59.5 -20.5t-21.5 -55.5t21.5 -55.5t59.5 -20.5h121z" />
    <glyph glyph-name="afii10071" unicode="&#x451;" horiz-adv-x="539" 
d="M439 657q0 -24 -17 -40.5t-40 -16.5t-39.5 16.5t-16.5 39.5t16.5 40t39.5 17t40 -17t17 -39zM219 657q0 -24 -16.5 -40.5t-39.5 -16.5t-39.5 16.5t-16.5 39.5t16.5 40t39.5 17t39.5 -16.5t16.5 -39.5zM484 223h-328q3 -142 133 -142q64 0 119 53l64 -61
q-44 -43 -85.5 -61t-101.5 -18q-114 0 -172 66.5t-58 195.5q0 119 57.5 188t157.5 69q98 0 156 -66t58 -178v-46zM384 295q-10 133 -114 133q-57 0 -84.5 -37.5t-29.5 -95.5h228z" />
    <glyph glyph-name="afii10099" unicode="&#x452;" horiz-adv-x="566" 
d="M490 -47q0 -71 -38.5 -116t-121.5 -45h-54v87h36q36 0 56 23t20 57v218q0 53 -25.5 82t-73.5 29t-77 -30t-29 -81v-177h-102v438h-52v78h52v196h102v-196h238v-78h-238v-116q58 58 135 58q80 0 126 -50.5t46 -136.5v-240z" />
    <glyph glyph-name="afii10100" unicode="&#x453;" horiz-adv-x="426" 
d="M356 761l-111 -162h-77l76 162h112zM414 418h-228v-418h-102v507h330v-89z" />
    <glyph glyph-name="afii10101" unicode="&#x454;" horiz-adv-x="485" 
d="M448 65q-39 -39 -76 -55t-90 -16q-108 0 -167.5 68.5t-59.5 193.5q0 121 60 189t167 68q53 0 89 -16.5t77 -55.5l-68 -66q-26 26 -47.5 37.5t-51.5 11.5q-56 0 -87 -34.5t-36 -94.5h181v-72h-182q4 -64 34.5 -102t89.5 -38q31 0 52 11.5t47 37.5z" />
    <glyph glyph-name="afii10102" unicode="&#x455;" horiz-adv-x="499" 
d="M455 155q0 -77 -58 -119t-164 -42q-71 0 -124 22q-35 14 -77 51l67 67q61 -53 145 -53q54 0 83 18.5t29 52.5q0 53 -68 59l-82 7q-149 12 -149 138q0 73 53.5 115t145.5 42q65 0 116 -20q31 -11 64 -37l-64 -65q-47 37 -122 37q-95 0 -95 -66q0 -51 70 -57l80 -7
q150 -14 150 -143z" />
    <glyph glyph-name="afii10103" unicode="&#x456;" horiz-adv-x="264" 
d="M198 674q0 -29 -19 -48.5t-47 -19.5q-27 0 -46.5 19.5t-19.5 46.5q0 28 19.5 47t46.5 19t46.5 -19t19.5 -45zM183 0h-102v507h102v-507z" />
    <glyph glyph-name="afii10104" unicode="&#x457;" horiz-adv-x="264" 
d="M297 657q0 -24 -17 -40.5t-40 -16.5t-39.5 16.5t-16.5 39.5t16.5 40t39.5 17t40 -17t17 -39zM77 657q0 -24 -16.5 -40.5t-39.5 -16.5t-39.5 16.5t-16.5 39.5t16.5 40t39.5 17t39.5 -16.5t16.5 -39.5zM183 0h-102v507h102v-507z" />
    <glyph glyph-name="afii10105" unicode="&#x458;" horiz-adv-x="264" 
d="M198 674q0 -29 -19 -48.5t-47 -19.5q-27 0 -46.5 19.5t-19.5 46.5q0 28 19.5 47t46.5 19t46.5 -19t19.5 -45zM183 -67q0 -65 -37.5 -103t-101.5 -38h-63v88h45q29 0 42 14t13 45v568h102v-574z" />
    <glyph glyph-name="afii10106" unicode="&#x459;" horiz-adv-x="824" 
d="M788 158q0 -70 -45.5 -114t-119.5 -44h-236v418h-148l-6 -215q-6 -203 -160 -203h-55v89h21q89 0 93 136l8 282h348v-191h135q74 0 119.5 -44t45.5 -114zM687 158q0 35 -21.5 54.5t-59.5 19.5h-119v-149h119q38 0 59.5 20t21.5 55z" />
    <glyph glyph-name="afii10107" unicode="&#x45a;" horiz-adv-x="822" 
d="M786 158q0 -70 -45.5 -114t-119.5 -44h-236v226h-202v-226h-102v507h102v-191h202v191h102v-191h134q74 0 119.5 -43.5t45.5 -114.5zM684 158q0 35 -20.5 54.5t-59.5 19.5h-119v-149h119q39 0 59.5 19.5t20.5 55.5z" />
    <glyph glyph-name="afii10108" unicode="&#x45b;" horiz-adv-x="566" 
d="M490 0h-102v177q0 53 -26.5 82t-74.5 29q-49 0 -76.5 -29.5t-27.5 -81.5v-177h-102v438h-52v78h52v196h102v-196h238v-78h-238v-116q58 58 133 58q80 0 127 -51t47 -136v-193z" />
    <glyph glyph-name="afii10109" unicode="&#x45c;" horiz-adv-x="546" 
d="M395 761l-111 -162h-77l76 162h112zM527 0h-125l-145 225l-73 -83v-142h-102v507h102v-241l202 241h125l-185 -208z" />
    <glyph glyph-name="afii10110" unicode="&#x45e;" horiz-adv-x="471" 
d="M396 718q-20 -139 -161 -139t-161 139h73q15 -65 89 -65q72 0 87 65h73zM464 507l-224 -608q-36 -100 -141 -100h-41v92h26q32 0 47 10.5t26 42.5l28 80l-178 483h109l121 -358l118 358h109z" />
    <glyph glyph-name="afii10193" unicode="&#x45f;" horiz-adv-x="568" 
d="M487 0h-155v-140h-97v140h-154v507h102v-418h202v418h102v-507z" />
    <glyph glyph-name="afii10050" unicode="&#x490;" horiz-adv-x="565" 
d="M536 615h-330v-615h-108v712h333v170h105v-267z" />
    <glyph glyph-name="afii10098" unicode="&#x491;" horiz-adv-x="426" 
d="M414 418h-227v-418h-102v507h231v140h98v-229z" />
    <glyph glyph-name="endash" unicode="&#x2013;" horiz-adv-x="500" 
d="M500 230h-500v95h500v-95z" />
    <glyph glyph-name="emdash" unicode="&#x2014;" horiz-adv-x="1000" 
d="M1000 230h-1000v95h1000v-95z" />
    <glyph glyph-name="quoteleft" unicode="&#x2018;" horiz-adv-x="268" 
d="M209 776l-46 -214h-109l68 214h87z" />
    <glyph glyph-name="quoteright" unicode="&#x2019;" horiz-adv-x="268" 
d="M210 776l-69 -214h-87l46 214h110z" />
    <glyph glyph-name="quotesinglbase" unicode="&#x201a;" horiz-adv-x="268" 
d="M211 110l-69 -214h-87l46 214h110z" />
    <glyph glyph-name="quotedblleft" unicode="&#x201c;" horiz-adv-x="459" 
d="M401 776l-46 -214h-109l68 214h87zM211 776l-47 -214h-109l69 214h87z" />
    <glyph glyph-name="quotedblright" unicode="&#x201d;" horiz-adv-x="459" 
d="M401 776l-69 -214h-86l46 214h109zM211 776l-69 -214h-87l46 214h110z" />
    <glyph glyph-name="quotedblbase" unicode="&#x201e;" horiz-adv-x="459" 
d="M401 110l-69 -214h-86l46 214h109zM211 110l-69 -214h-87l46 214h110z" />
    <glyph glyph-name="dagger" unicode="&#x2020;" horiz-adv-x="592" 
d="M526 427h-180v-427h-102v427h-179v91h179v194h102v-194h180v-91z" />
    <glyph glyph-name="daggerdbl" unicode="&#x2021;" horiz-adv-x="592" 
d="M526 -11h-180v-194h-102v194h-179v91h179v347h-179v91h179v194h102v-194h180v-91h-180v-347h180v-91z" />
    <glyph glyph-name="bullet" unicode="&#x2022;" horiz-adv-x="512" 
d="M419 337q0 -70 -47.5 -118t-115.5 -48t-115.5 47.5t-47.5 115.5t47.5 115.5t115.5 47.5q66 0 114.5 -47.5t48.5 -112.5z" />
    <glyph glyph-name="ellipsis" unicode="&#x2026;" horiz-adv-x="803" 
d="M733 71q0 -31 -21 -52.5t-51 -21.5t-51.5 21.5t-21.5 50.5q0 30 21.5 51.5t51.5 21.5q29 0 50.5 -21.5t21.5 -49.5zM474 71q0 -31 -21.5 -52.5t-51.5 -21.5t-51 21.5t-21 50.5q0 30 21 51.5t51 21.5q29 0 51 -21.5t22 -49.5zM215 70q0 -30 -21.5 -51.5t-51.5 -21.5
t-51.5 21.5t-21.5 50.5q0 30 21.5 51.5t51.5 21.5q29 0 51 -21.5t22 -50.5z" />
    <glyph glyph-name="perthousand" unicode="&#x2030;" horiz-adv-x="1195" 
d="M1137 130q0 -61 -38.5 -98.5t-101.5 -37.5t-101.5 37.5t-38.5 98.5v101q0 61 38.5 98.5t101.5 37.5q62 0 101 -37.5t39 -98.5v-101zM783 130q0 -61 -39 -98.5t-101 -37.5q-63 0 -101.5 37.5t-38.5 98.5v101q0 61 38.5 98.5t101.5 37.5q62 0 101 -37.5t39 -98.5v-101z
M629 712l-335 -712h-82l336 712h81zM339 481q0 -61 -39 -98.5t-102 -37.5t-101.5 37.5t-38.5 98.5v101q0 61 39 98.5t101 37.5q63 0 102 -37.5t39 -98.5v-101zM1061 132v96q0 72 -64 72t-64 -72v-95q0 -72 64 -72t64 71zM707 133v95q0 72 -64 72t-64 -72v-95q0 -72 64 -72
t64 72zM263 484v95q0 72 -65 72q-64 0 -64 -72v-95q0 -72 65 -72q64 0 64 72z" />
    <glyph glyph-name="guilsinglleft" unicode="&#x2039;" horiz-adv-x="339" 
d="M267 42l-230 230l230 229v-123l-107 -106l107 -107v-123z" />
    <glyph glyph-name="guilsinglright" unicode="&#x203a;" horiz-adv-x="339" 
d="M302 272l-230 -230v123l108 107l-108 106v123z" />
    <glyph glyph-name="Euro" unicode="&#x20ac;" 
d="M492 679v-100q-49 47 -138 47q-70 0 -110 -41t-49 -115h261l-26 -78h-245q-1 -9 -1 -32q0 -26 1 -35h222l-26 -78h-186q21 -161 159 -161q85 0 138 47v-101q-46 -37 -151 -37q-210 0 -245 252h-74l26 78h40q0 3 -0.5 15.5t-0.5 19.5q0 6 0.5 17t0.5 15h-66l26 78h47
q37 248 246 248q99 0 151 -39z" />
    <glyph glyph-name="afii61352" unicode="&#x2116;" horiz-adv-x="964" 
d="M900 268q0 -61 -38.5 -98.5t-100.5 -37.5q-64 0 -102.5 37.5t-38.5 98.5v102q0 61 38.5 98.5t102.5 37.5q62 0 100.5 -37.5t38.5 -98.5v-102zM903 0h-280v80h280v-80zM561 0h-92l-292 513v-513h-102v712h92l291 -512v512h103v-712zM822 271v96q0 69 -62 69q-61 0 -61 -69
v-96q0 -69 62 -69q61 0 61 69z" />
    <glyph glyph-name="trademark" unicode="&#x2122;" horiz-adv-x="883" 
d="M822 285h-77v279l-91 -179h-70l-91 179v-279h-77v427h77l126 -243l126 243h77v-427zM346 643h-114v-358h-77v358h-114v69h305v-69z" />
    <glyph glyph-name="radical" unicode="&#x221a;" horiz-adv-x="579" 
d="M549 615h-90l-202 -615h-84l-168 507h111l99 -313l163 518h171v-97z" />
    <glyph glyph-name="infinity" unicode="&#x221e;" horiz-adv-x="830" 
d="M769 276q0 -78 -48 -126t-126 -48q-56 0 -96 24.5t-84 74.5q-43 -49 -84 -74.5t-96 -25.5q-77 0 -125.5 48.5t-48.5 126.5t48 126.5t125 48.5q55 0 96 -25t85 -75q43 49 84 74.5t96 25.5q77 0 125.5 -48.5t48.5 -126.5zM670 274q0 34 -21 56t-55 22q-23 0 -46 -14.5
t-34.5 -26.5t-31.5 -37q35 -42 59 -60.5t53 -18.5q34 0 55 22t21 57zM347 274q-34 41 -58 60t-53 19q-34 0 -55.5 -22t-21.5 -57t21.5 -57t55.5 -22q29 0 53 19t58 60z" />
    <glyph glyph-name="approxequal" unicode="&#x2248;" 
d="M511 380q-53 -50 -88 -66q-22 -11 -58 -11q-32 0 -80 18q-28 11 -50 21q-37 17 -65 17q-23 0 -40 -8.5t-44 -34.5l-63 63q44 43 76 61q32 17 70 17q37 0 112 -33q6 -2 16 -7q37 -17 65 -17q23 0 40 9t44 35zM511 178q-45 -44 -76 -60q-31 -18 -70 -18q-22 0 -79 19
q-29 11 -42 17q-42 21 -73 21q-22 0 -39 -9t-45 -35l-64 64q50 49 88 66q22 11 58 11q33 0 79 -18q30 -12 42 -18q41 -20 73 -20q23 0 39.5 8.5t44.5 35.5z" />
    <glyph glyph-name="notequal" unicode="&#x2260;" 
d="M481 133h-269l-89 -114l-67 46l55 68h-60v95h125l81 99h-206v95h270l90 115l67 -46l-56 -69h59v-95h-124l-81 -99h205v-95z" />
    <glyph glyph-name="lessequal" unicode="&#x2264;" 
d="M497 139l-461 160v96l461 156v-100l-330 -104l330 -108v-100zM497 -12h-461v95h461v-95z" />
    <glyph glyph-name="greaterequal" unicode="&#x2265;" 
d="M497 299l-461 -160v100l329 108l-329 104v100l461 -156v-96zM497 -12h-461v95h461v-95z" />
    <glyph glyph-name="nbspace" horiz-adv-x="240" 
 />
    <glyph glyph-name="hyphenminus" horiz-adv-x="426" 
d="M359 230h-292v95h292v-95z" />
    </font>
</defs>
</svg>
